<?xml version="1.0" encoding="utf-8"?>
<!-- Generator: Adobe Illustrator 27.7.0, SVG Export Plug-In . SVG Version: 6.00 Build 0)  -->
<svg version="1.1" id="Layer_1" xmlns="http://www.w3.org/2000/svg" xmlns:xlink="http://www.w3.org/1999/xlink" x="0px" y="0px"
	 viewBox="0 0 982.2 982.2" style="enable-background:new 0 0 982.2 982.2;" xml:space="preserve">
<style type="text/css">
	.st0{fill:#FFFFFF;}
	.st1{fill:#B3C1EE;}
	.st2{fill:#B4CFFA;}
	.st3{fill:#B37AAF;}
	.st4{fill:#B3A5D6;}
	.st5{fill:#B7FAFF;}
	.st6{fill:#B2B3E1;}
	.st7{fill:#B388BD;}
	.st8{fill:#B397C9;}
</style>
<circle class="st0" cx="491.1" cy="491.1" r="491.1"/>
<g>
	<path class="st1" d="M891.1,488.6c0,0.7,0,1.3,0,2c-0.3,0-0.6,0-0.9,0c-0.4,0.4-0.7,0.7-1.1,1.1c0,0,0.1,0,0.1,0
		c-1.5,0.6-3.1,1.1-4.5,2c-19.5,12.6-39,25.3-58.4,38c-35.7,23.2-71.5,46.5-107.2,69.7c-30.5,19.8-60.9,39.7-91.3,59.5
		c-11.8,7.7-23.7,15.3-35.6,22.9c-0.7-3-1.7-6-2-9c-0.9-8.9-1.4-17.8-2.2-26.7c-1.2-13.8-2.6-27.6-3.9-41.5
		c-0.8-8.2-1.4-16.5-2.2-24.7c-1.2-13.3-2.6-26.6-3.8-40c-0.8-8.4-1.4-16.8-2.2-25.2c-1.2-13.3-2.6-26.6-3.8-40
		c-0.8-8.7-1.4-17.5-2.2-26.2c-1.2-12.8-2.6-25.6-3.8-38.5c-0.8-8.7-1.4-17.5-2.2-26.2c-1.2-13.7-2.6-27.3-3.8-41
		c-0.8-8.4-1.4-16.8-2.2-25.2c-0.9-10.7-1.9-21.4-2.8-32.1c1.7,0.6,3.6,0.9,5.1,1.8c19.5,11.8,38.8,23.7,58.3,35.4
		c31.8,19.2,63.7,38.2,95.6,57.4c19.5,11.7,38.8,23.7,58.2,35.5c33.3,20.2,66.7,40.4,100.1,60.5c5.5,3.3,11.2,6.2,16.9,9.3l-0.1,0.1
		c0.3,0.3,0.7,0.7,1,1l0.5,0L891.1,488.6z"/>
	<path class="st2" d="M292.1,144.6c0.3,0,0.7,0,1,0c0.6,0.5,1.2,1.1,2,1.5c27.3,14.8,54.6,29.7,81.9,44.4
		c25.6,13.8,51.2,27.6,76.8,41.4C481.8,247,510,262,538,277.1c5.1,2.7,10,5.7,15.1,8.6c-0.9,0.6-1.7,1.5-2.7,1.9
		c-13.4,5.4-26.8,10.6-40.2,16c-27.6,11-55.1,22.1-82.7,33c-28.8,11.4-57.7,22.7-86.6,34.1c-38.6,15.2-77.1,30.5-115.7,45.8
		c1.9-8.1,3.7-16.1,5.7-24.1c7.6-30.9,15.2-61.7,22.8-92.6c8.8-35.3,17.6-70.7,26.4-106c3.8-15.4,7.4-30.9,11.1-46.3
		C291.4,146.5,291.8,145.6,292.1,144.6z"/>
	<path class="st2" d="M889.3,487.5c-5.6-3.1-11.4-6-16.9-9.3c-33.4-20.1-66.8-40.3-100.1-60.5c-19.4-11.8-38.8-23.7-58.2-35.5
		c-31.8-19.2-63.7-38.2-95.6-57.4c-19.5-11.7-38.8-23.6-58.3-35.4c-1.5-0.9-3.4-1.2-5.1-1.8c0-0.6,0-1.2,0-1.8
		c0.7-0.9,1.3-1.9,2.1-2.7c20.9-21.2,41.7-42.5,62.6-63.6c19.3-19.5,38.8-38.8,58.1-58.3c5.2-5.3,10.1-11,15.1-16.5c0.3,0,0.7,0,1,0
		c13.3,23.2,26.6,46.5,39.9,69.7c15.3,26.7,30.5,53.5,45.7,80.2c16.8,29.5,33.7,58.9,50.5,88.3c15.4,26.8,30.8,53.7,46.1,80.6
		C880.8,471.3,884.9,479.4,889.3,487.5z"/>
	<path class="st3" d="M694.2,836.6c0,0.3,0,0.7,0,1c-134,0-268,0-402,0c-0.1-0.3-0.1-0.6-0.1-1c2-0.7,4.2-1.1,6-2.1
		c18.6-9.6,37.2-19.3,55.8-28.9c29.9-15.3,59.8-30.6,89.8-45.9c37.3-19,74.7-38,112.1-57.1c11.5-5.9,22.9-12.1,34.4-18.1
		c0.7,0,1.3,0,2,0c0.8,1.6,1.4,3.4,2.4,4.9c27.2,40.5,54.4,81.1,81.7,121.6C682,819.7,688.1,828.1,694.2,836.6z"/>
	<path class="st4" d="M290.1,833.6c-9.5-16-19.1-32-28.5-48c-27-46.1-54-92.1-81-138.2c-27-46.2-54-92.5-81-138.7
		c-2.8-4.7-5.7-9.4-8.5-14c0-0.7,0-1.3,0-2c0.3,0,0.7,0,1,0c1.4-0.5,2.9-0.9,4.1-1.6c26.9-15.5,53.8-31.1,80.7-46.6
		c15.7-9,31.4-17.9,47.1-26.9c0.4,0,0.7,0,1.1,0.1c2.5,16.3,4.9,32.6,7.5,49c2.4,15.2,5,30.3,7.5,45.5c2.9,18.3,5.7,36.5,8.6,54.8
		c2.7,17.1,5.6,34.2,8.4,51.3c2.9,18.1,5.6,36.2,8.5,54.3c2.4,15.2,5.1,30.3,7.5,45.5c2.9,18.3,5.7,36.5,8.6,54.8
		c3.1,19.2,6.3,38.5,9.3,57.7C291.2,831.4,290.4,832.6,290.1,833.6z"/>
	<path class="st5" d="M693.1,144.6c-5,5.5-9.9,11.2-15.1,16.5c-19.3,19.5-38.8,38.8-58.1,58.3c-20.9,21.1-41.8,42.4-62.6,63.6
		c-0.8,0.8-1.4,1.8-2.1,2.7c-0.7,0-1.3,0-2,0c-5-2.9-10-5.9-15.1-8.6C510,262,481.8,247,453.7,231.9c-25.6-13.8-51.2-27.5-76.8-41.4
		c-27.3-14.8-54.6-29.6-81.9-44.4c-0.7-0.4-1.3-1-2-1.5C426.4,144.6,559.8,144.6,693.1,144.6z"/>
	<path class="st6" d="M553.1,285.7c0.7,0,1.3,0,2,0c0,0.6,0,1.2,0,1.8c0.9,10.7,1.9,21.4,2.8,32.1c0.7,8.4,1.4,16.8,2.2,25.2
		c1.3,13.7,2.6,27.3,3.8,41c0.8,8.7,1.4,17.5,2.2,26.2c1.2,12.8,2.6,25.6,3.8,38.5c0.8,8.7,1.4,17.5,2.2,26.2
		c1.2,13.3,2.6,26.6,3.8,40c0.8,8.4,1.4,16.8,2.2,25.2c1.2,13.3,2.6,26.6,3.8,40c0.8,8.2,1.4,16.5,2.2,24.7
		c1.3,13.8,2.6,27.6,3.9,41.5c0.8,8.9,1.3,17.8,2.2,26.7c0.3,3,1.3,6,2,9c0,0.3-0.1,0.7-0.1,1c-0.7,0-1.3,0-2,0
		c-2.2-1.7-4.3-3.5-6.5-5.1c-15.5-11.4-30.9-22.9-46.4-34.2c-11.8-8.6-23.7-17-35.5-25.6c-24.8-18.1-49.5-36.2-74.2-54.4
		c-22.7-16.6-45.5-33.3-68.2-49.9c-21.1-15.5-42.2-31-63.3-46.4c-13.6-10-27.3-20-41-29.9c-9.9-7.2-19.9-14.3-29.9-21.4
		c-0.4,0-0.7,0-1.1-0.1c0.3-0.3,0.7-0.7,1-1c38.6-15.3,77.1-30.5,115.7-45.8c28.9-11.4,57.8-22.7,86.6-34.1
		c27.6-10.9,55.2-22,82.7-33c13.4-5.3,26.8-10.6,40.2-16C551.4,287.2,552.2,286.4,553.1,285.7z"/>
	<path class="st7" d="M592.1,684.7c0-0.3,0.1-0.7,0.1-1c11.9-7.6,23.7-15.2,35.6-22.9c30.5-19.8,60.9-39.7,91.3-59.5
		c35.7-23.3,71.5-46.5,107.2-69.7c19.5-12.7,38.9-25.3,58.4-38c1.3-0.9,3-1.3,4.5-2c-5.1,9.5-10.1,19.1-15.4,28.5
		c-28.3,50.1-56.7,100.2-85.1,150.3c-29.4,51.8-58.7,103.7-88.1,155.5c-2,3.6-4.2,7.1-6.4,10.7c-6-8.5-12.2-16.9-18-25.5
		c-27.3-40.5-54.5-81-81.7-121.6C593.5,688,592.9,686.3,592.1,684.7z"/>
	<path class="st2" d="M889.2,487.5c0.3,0.3,0.7,0.7,1,1C889.9,488.2,889.5,487.9,889.2,487.5z"/>
	<path class="st7" d="M890.2,490.6c-0.4,0.4-0.7,0.7-1.1,1.1C889.5,491.3,889.8,491,890.2,490.6z"/>
	<path class="st5" d="M225.1,416.6c-0.3,0.3-0.7,0.7-1,1c-15.7,9-31.5,17.9-47.1,26.9c-26.9,15.5-53.8,31.1-80.7,46.6
		c-1.3,0.7-2.7,1.1-4.1,1.6c6.3-11.1,12.5-22.2,18.9-33.3c14.8-25.8,29.6-51.5,44.5-77.3c14.7-25.5,29.4-50.9,44-76.4
		c14.7-25.5,29.3-51,43.9-76.5c15.3-26.6,30.6-53.3,46-79.9c0.4-0.7,1.1-1.2,1.7-1.8c-3.7,15.4-7.3,30.9-11.1,46.3
		c-8.7,35.3-17.6,70.7-26.4,106c-7.6,30.8-15.2,61.7-22.8,92.6C228.8,400.4,226.9,408.5,225.1,416.6z"/>
	<path class="st8" d="M225.1,417.6c10,7.1,20,14.2,29.9,21.4c13.7,9.9,27.3,19.9,41,29.9c21.1,15.5,42.2,31,63.3,46.4
		c22.7,16.6,45.5,33.3,68.2,49.9c24.7,18.1,49.4,36.3,74.2,54.4c11.8,8.6,23.7,17,35.5,25.6c15.5,11.4,30.9,22.8,46.4,34.2
		c2.2,1.6,4.4,3.4,6.5,5.1c-11.5,6-22.8,12.2-34.4,18.1c-37.3,19.1-74.7,38-112.1,57.1c-29.9,15.3-59.9,30.5-89.8,45.9
		c-18.6,9.6-37.2,19.3-55.8,28.9c-1.9,1-4,1.4-6,2.1c-0.6-1-1.3-2-1.9-3c0.3-1.1,1-2.2,0.9-3.2c-3.1-19.2-6.3-38.5-9.3-57.7
		c-2.9-18.3-5.7-36.5-8.6-54.8c-2.4-15.2-5.1-30.3-7.5-45.5c-2.9-18.1-5.6-36.2-8.5-54.3c-2.7-17.1-5.6-34.2-8.4-51.3
		c-2.9-18.3-5.7-36.5-8.6-54.8c-2.4-15.2-5.1-30.3-7.5-45.5C230,450.3,227.6,433.9,225.1,417.6z"/>
</g>
</svg>
