<?xml version="1.0" encoding="utf-8"?>
<!-- Generator: Adobe Illustrator 27.7.0, SVG Export Plug-In . SVG Version: 6.00 Build 0)  -->
<svg version="1.1" id="Layer_1" xmlns="http://www.w3.org/2000/svg" xmlns:xlink="http://www.w3.org/1999/xlink" x="0px" y="0px"
	 viewBox="0 0 30.5 30.5" style="enable-background:new 0 0 30.5 30.5;" xml:space="preserve">
<style type="text/css">
	.st0{fill:#FFFFFF;stroke:#000000;stroke-width:0.3;}
	.st1{fill:#111118;}
</style>
<g id="_x31_.首页相关">
	<circle class="st0" cx="15.3" cy="15.3" r="15.1"/>
	<g id="画板" transform="translate(-21.000000, -518.000000)">
		<g id="编组-2" transform="translate(22.000000, 519.000000)">
			<g id="编组">
				<g id="编组-7备份" transform="translate(10.000000, 7.000000)">
					<path id="形状结合" class="st1" d="M4.1-4.3c2.1,0,4.1,0.8,5.7,2.3c1.5,1.5,2.3,3.5,2.3,5.7v13h-16v-13
						c0-2.1,0.8-4.1,2.3-5.7S1.9-4.3,4.1-4.3z M4.1-3.9c-2,0-3.9,0.8-5.4,2.2c-1.4,1.4-2.2,3.3-2.2,5.4v12.6h15.2V3.7
						c0-2-0.8-3.9-2.2-5.4C8-3.1,6.1-3.9,4.1-3.9z M4.1-2.9c1.6,0,3.1,0.6,4.3,1.6C8.5-1.2,8.6-1,8.8-0.9c1.3,1.3,1.9,3,1.9,4.8
						v11.4H-2.6V3.9c0-1.8,0.7-3.5,1.9-4.8C0.6-2.2,2.3-2.9,4.1-2.9z M0.3,13v1.5h2.2C1.7,14.2,1,13.7,0.3,13z M0.3,0
						c-1,1.1-1.5,2.5-1.5,4v4.3c0,1.3,0.4,2.6,1.2,3.6c0.1,0.2,0.3,0.3,0.4,0.5c0.1,0.1,0.1,0.1,0.2,0.2c1.1,1.2,2.6,1.8,4.2,1.8
						c0.7,0,1.3-0.1,2-0.3V5.8C6.7,1.9,2.8,0.2,0.3,0z M4.1,3.7c1,0,1.8,0.8,1.8,1.8c0,0.1-0.1,0.2-0.2,0.2S5.5,5.6,5.5,5.5
						c0-0.8-0.6-1.4-1.3-1.4S2.8,4.7,2.8,5.5V9c0.3-0.1,0.5-0.4,0.5-0.7c0-0.1,0.1-0.2,0.2-0.2s0.2,0.1,0.2,0.2
						c0,0.6-0.5,1.1-1.1,1.2H2.5C1.9,9.5,1.4,9,1.4,8.3c0-0.1,0.1-0.2,0.2-0.2s0.2,0.1,0.2,0.2C1.8,8.6,2,8.9,2.3,9V5.6
						c0,0,0,0,0-0.1c0,0,0-1-0.6-1c-0.1,0-0.2-0.1-0.2-0.2s0.1-0.2,0.2-0.2c0.4,0,0.7,0.2,0.8,0.5C2.8,4.1,3.4,3.7,4.1,3.7z
						 M0.1,5.1l1,1V5.6c0-0.1,0.1-0.2,0.2-0.2s0.2,0.1,0.2,0.2v1.2C1.5,6.9,1.4,7,1.4,7H1.3C1.2,7,1.2,7,1.1,6.9l-1-1v0.9
						C0.1,6.9,0,7-0.1,7s-0.2-0.1-0.2-0.2V5.3c0-0.1,0.1-0.2,0.1-0.2S0,5.1,0.1,5.1z M4.1,5.4C4.6,5.4,5,5.8,5,6.3
						c0,0.1-0.1,0.2-0.2,0.2S4.6,6.4,4.6,6.3c0-0.2-0.2-0.4-0.4-0.4S3.7,6.1,3.7,6.3c0,0.1-0.1,0.2-0.2,0.2c-0.1,0-0.2-0.1-0.2-0.2
						C3.2,5.8,3.6,5.4,4.1,5.4z"/>
				</g>
			</g>
		</g>
	</g>
</g>
</svg>
